HIERARCHY
ROOT joint_Root
{
	OFFSET 0.0 0.0 0.0
	CHANNELS 6 Xposition Yposition Zposition Zrotation Xrotation Yrotation 
	JOINT Hips
	{
		OFFSET 4.5925 91.4895 -427.239
		CHANNELS 6 Xposition Yposition Zposition Zrotation Xrotation Yrotation 
		JOINT Spine
		{
			OFFSET 15.7357 0.0 0.0
			CHANNELS 6 Xposition Yposition Zposition Zrotation Xrotation Yrotation 
			JOINT Chest
			{
				OFFSET 8.98455 -0.406207 0.0
				CHANNELS 6 Xposition Yposition Zposition Zrotation Xrotation Yrotation 
				JOINT Neck
				{
					OFFSET 16.3773 0.0 0.0
					CHANNELS 6 Xposition Yposition Zposition Zrotation Xrotation Yrotation 
					JOINT Head
					{
						OFFSET 6.45672 0.0 0.0
						CHANNELS 6 Xposition Yposition Zposition Zrotation Xrotation Yrotation 
						End Site
						{
							OFFSET 0.0 0.0 0.0
						}
					}
				}
				JOINT Shoulder_L
				{
					OFFSET 12.9942 -0.242716 4.98039
					CHANNELS 6 Xposition Yposition Zposition Zrotation Xrotation Yrotation 
					JOINT UpperArm_L
					{
						OFFSET 5.34809 0.0 0.0
						CHANNELS 6 Xposition Yposition Zposition Zrotation Xrotation Yrotation 
						JOINT LowerArm_L
						{
							OFFSET 24.3286 1.87007e-05 0.0
							CHANNELS 6 Xposition Yposition Zposition Zrotation Xrotation Yrotation 
							JOINT Hand_L
							{
								OFFSET 22.2916 0.0 0.0
								CHANNELS 6 Xposition Yposition Zposition Zrotation Xrotation Yrotation 
								End Site
								{
									OFFSET 0.0 0.0 0.0
								}
							}
						}
					}
				}
				JOINT Shoulder_R
				{
					OFFSET 12.9945 -0.242716 -4.98039
					CHANNELS 6 Xposition Yposition Zposition Zrotation Xrotation Yrotation 
					JOINT UpperArm_R
					{
						OFFSET -5.34813 0.0 0.0
						CHANNELS 6 Xposition Yposition Zposition Zrotation Xrotation Yrotation 
						JOINT LowerArm_R
						{
							OFFSET -24.3289 0.000322201 0.0
							CHANNELS 6 Xposition Yposition Zposition Zrotation Xrotation Yrotation 
							JOINT Hand_R
							{
								OFFSET -22.2915 -0.000108084 0.0
								CHANNELS 6 Xposition Yposition Zposition Zrotation Xrotation Yrotation 
								End Site
								{
									OFFSET 0.0 0.0 0.0
								}
							}
						}
					}
				}
			}
		}
		JOINT UpperLeg_L
		{
			OFFSET -2.19248 -6.46944 0.0
			CHANNELS 6 Xposition Yposition Zposition Zrotation Xrotation Yrotation 
			JOINT LowerLeg_L
			{
				OFFSET 39.0811 0.0 -1.23785e-05
				CHANNELS 6 Xposition Yposition Zposition Zrotation Xrotation Yrotation 
				JOINT Foot_L
				{
					OFFSET 40.9854 0.0 -1.26872e-05
					CHANNELS 6 Xposition Yposition Zposition Zrotation Xrotation Yrotation 
					JOINT Toes_L
					{
						OFFSET 11.7543 0.0 0.0
						CHANNELS 6 Xposition Yposition Zposition Zrotation Xrotation Yrotation 
						End Site
						{
							OFFSET 0.0 0.0 0.0
						}
					}
				}
			}
		}
		JOINT UpperLeg_R
		{
			OFFSET -2.19251 6.46944 0.0
			CHANNELS 6 Xposition Yposition Zposition Zrotation Xrotation Yrotation 
			JOINT LowerLeg_R
			{
				OFFSET -39.0811 -0.00228153 -0.0401928
				CHANNELS 6 Xposition Yposition Zposition Zrotation Xrotation Yrotation 
				JOINT Foot_R
				{
					OFFSET -40.9854 0.0 0.0
					CHANNELS 6 Xposition Yposition Zposition Zrotation Xrotation Yrotation 
					JOINT Toes_R
					{
						OFFSET -11.7543 0.0 0.0
						CHANNELS 6 Xposition Yposition Zposition Zrotation Xrotation Yrotation 
						End Site
						{
							OFFSET 0.0 0.0 0.0
						}
					}
				}
			}
		}
	}
}
MOTION
Frames:	4
Frame Time:	0.0333333
0.000000 0.000000 0.000000 0.000000 0.000000 -0.000000 -0.339364 90.714900 -7.268220 89.152700 -2.227760 10.708300 15.735700 0.000005 -0.000001 88.743000 76.122900 -89.471300 8.984550 -0.406207 -0.000000 19.978400 -0.672427 -1.342550 16.377300 -0.000001 -0.000001 11.837400 -3.868450 2.946060 6.456720 -0.000001 -0.000000 -10.035500 -3.218610 0.730059 12.994200 -0.242716 4.980390 -88.274200 -6.029350 -73.994400 5.348090 -0.000007 -0.000001 -80.129500 -16.239700 -81.893000 24.328600 0.000019 0.000005 43.536100 -10.049700 -100.407000 22.291600 -0.000001 0.000005 18.791800 4.934590 8.680540 12.994500 -0.242716 -4.980390 90.322500 -1.678440 -79.123100 -5.348130 -0.000001 -0.000004 -72.326900 -19.830800 -82.325300 -24.328900 0.000322 -0.000009 19.113800 -4.301860 -102.214000 -22.291500 -0.000108 -0.000004 25.457800 5.263650 1.069150 -2.192480 -6.469440 -0.000000 -175.163000 -11.520300 -5.755410 39.081100 -0.000007 -0.000012 -0.136258 0.209358 33.057900 40.985400 -0.000006 -0.000013 0.835895 5.742690 -66.559800 11.754300 -0.000000 0.000003 -0.000082 -0.000866 -16.610900 -2.192510 6.469440 -0.000001 175.765000 21.486400 175.656000 -39.081100 -0.002282 -0.040193 -0.097690 0.159362 32.362400 -40.985400 0.000008 0.000006 5.160180 12.760500 -67.493000 -11.754300 -0.000006 -0.000006 -0.003132 -0.042087 -18.284700
0.000000 0.000000 0.000000 0.000000 0.000000 -0.000000 -0.350178 90.704800 -7.295330 89.131500 -2.207500 10.745300 15.735700 0.000005 -0.000001 88.751600 76.095100 -89.491600 8.984550 -0.406207 -0.000000 20.034000 -0.671120 -1.366190 16.377300 -0.000001 -0.000001 11.849500 -3.858780 2.944060 6.456720 -0.000001 -0.000000 -10.024400 -3.218500 0.756743 12.994200 -0.242716 4.980390 -88.281200 -5.991620 -73.961500 5.348090 -0.000007 -0.000001 -79.994900 -16.068800 -81.853100 24.328600 0.000019 0.000005 43.514000 -10.171000 -100.536000 22.291600 -0.000001 0.000005 18.835400 4.938410 8.602500 12.994500 -0.242716 -4.980390 90.314500 -1.634560 -79.106200 -5.348130 -0.000001 -0.000004 -72.449000 -19.831600 -82.272000 -24.328900 0.000322 -0.000009 19.125000 -4.477170 -102.687000 -22.291500 -0.000108 -0.000004 25.447300 5.259980 1.167260 -2.192480 -6.469440 -0.000000 -175.126000 -11.501100 -5.769870 39.081100 -0.000007 -0.000012 -0.138360 0.212112 33.116500 40.985400 -0.000006 -0.000013 0.832404 5.764410 -66.565800 11.754300 -0.000000 0.000003 -0.000086 -0.000900 -16.612200 -2.192510 6.469440 -0.000001 175.787000 21.518300 175.658000 -39.081100 -0.002282 -0.040193 -0.098687 0.160682 32.403100 -40.985400 0.000008 0.000006 5.184090 12.749400 -67.500600 -11.754300 -0.000006 -0.000006 -0.003241 -0.043295 -18.333900
0.000000 0.000000 0.000000 0.000000 0.000000 -0.000000 -0.358246 90.702800 -7.310890 89.139900 -2.209190 10.802200 15.735700 0.000005 -0.000001 88.758200 76.066100 -89.519800 8.984550 -0.406207 -0.000000 20.092000 -0.671774 -1.408900 16.377300 -0.000001 -0.000001 11.889800 -3.860090 2.947140 6.456720 -0.000001 -0.000000 -9.999810 -3.218150 0.776044 12.994200 -0.242716 4.980390 -88.276500 -6.011730 -73.970200 5.348090 -0.000007 -0.000001 -79.886200 -15.960000 -81.757300 24.328600 0.000019 0.000005 43.545700 -10.352800 -100.707000 22.291600 -0.000001 0.000005 18.653400 4.936990 8.631550 12.994500 -0.242716 -4.980390 90.305000 -1.587640 -79.123100 -5.348130 -0.000001 -0.000004 -72.507600 -19.823800 -82.196500 -24.328900 0.000322 -0.000009 19.098900 -4.644940 -103.164000 -22.291500 -0.000108 -0.000004 25.433700 5.257530 1.232710 -2.192480 -6.469440 -0.000000 -175.124000 -11.492300 -5.726220 39.081100 -0.000007 -0.000012 -0.137011 0.210019 33.119700 40.985400 -0.000006 -0.000013 0.824656 5.745430 -66.554300 11.754300 -0.000000 0.000003 -0.000086 -0.000900 -16.612200 -2.192510 6.469440 -0.000001 175.765000 21.476300 175.704000 -39.081100 -0.002282 -0.040193 -0.100590 0.163668 32.404900 -40.985400 0.000008 0.000006 5.102780 12.733400 -67.471400 -11.754300 -0.000006 -0.000006 -0.003209 -0.042942 -18.319600
0.000000 0.000000 0.000000 0.000000 0.000000 -0.000000 -0.364752 90.695000 -7.344010 89.122700 -2.206160 10.820400 15.735700 0.000005 -0.000001 88.732400 76.043000 -89.501800 8.984550 -0.406207 -0.000000 20.138000 -0.686108 -1.421750 16.377300 -0.000001 -0.000001 11.875700 -3.853290 2.933250 6.456720 -0.000001 -0.000000 -9.970750 -3.216680 0.780982 12.994200 -0.242716 4.980390 -88.290600 -5.946610 -73.930000 5.348090 -0.000007 -0.000001 -79.712700 -15.841500 -81.681500 24.328600 0.000019 0.000005 43.629200 -10.582700 -100.905000 22.291600 -0.000001 0.000005 18.534000 4.936760 8.636150 12.994500 -0.242716 -4.980390 90.296400 -1.541970 -79.118100 -5.348130 -0.000001 -0.000004 -72.539300 -19.770500 -82.151500 -24.328900 0.000322 -0.000009 19.059300 -4.805410 -103.630000 -22.291500 -0.000108 -0.000004 25.422000 5.257800 1.225710 -2.192480 -6.469440 -0.000000 -175.099000 -11.454000 -5.753130 39.081100 -0.000007 -0.000012 -0.139566 0.213566 33.165000 40.985400 -0.000006 -0.000013 0.816338 5.750850 -66.554200 11.754300 -0.000000 0.000003 -0.000077 -0.000826 -16.609400 -2.192510 6.469440 -0.000001 175.784000 21.510900 175.683000 -39.081100 -0.002282 -0.040193 -0.100870 0.163934 32.432800 -40.985400 0.000008 0.000006 5.102810 12.756400 -67.458000 -11.754300 -0.000006 -0.000006 -0.003188 -0.042714 -18.310300
